<svg xmlns="http://www.w3.org/2000/svg" viewBox="0 0 24 24"  fill="#ffffff">
    <path d="M12 2C6.48 2 2 6.48 2 12c0 4.41 2.87 8.16 6.84 9.49.5.09.68-.21.68-.48v-1.69c-2.78.61-3.37-1.25-3.37-1.25-.45-1.15-1.1-1.46-1.1-1.46-.91-.62.07-.61.07-.61 1 .07 1.52 1.04 1.52 1.04.89 1.53 2.34 1.09 2.91.83.09-.64.35-1.09.63-1.34-2.22-.26-4.56-1.11-4.56-4.94 0-1.09.39-1.98 1.03-2.68-.1-.26-.45-1.31.1-2.72 0 0 .84-.27 2.75 1.02A9.52 9.52 0 0 1 12 6.8a9.5 9.5 0 0 1 2.5.34c1.91-1.29 2.75-1.02 2.75-1.02.55 1.41.2 2.46.1 2.72.64.7 1.03 1.59 1.03 2.68 0 3.84-2.34 4.68-4.57 4.93.36.31.68.92.68 1.86v2.77c0 .27.18.58.68.48A10.004 10.004 0 0 0 22 12c0-5.52-4.48-10-10-10z" />
</svg>